<svg width="135" height="26" viewBox="0 0 135 26" fill="none" xmlns="http://www.w3.org/2000/svg">
<path d="M115.687 25.035V1.17377H125.544C127.33 1.17377 128.872 1.5233 130.169 2.22236C131.474 2.91365 132.48 3.88068 133.187 5.12345C133.894 6.35846 134.247 7.79541 134.247 9.43432C134.247 11.081 133.886 12.5218 133.163 13.7568C132.449 14.9841 131.427 15.9356 130.099 16.6113C128.771 17.2871 127.194 17.625 125.369 17.625H119.287V13.0811H124.297C125.167 13.0811 125.893 12.9296 126.476 12.6267C127.066 12.3238 127.513 11.9004 127.816 11.3567C128.119 10.8053 128.27 10.1644 128.27 9.43432C128.27 8.69642 128.119 8.0595 127.816 7.52356C127.513 6.97984 127.066 6.56041 126.476 6.26525C125.885 5.97009 125.159 5.82251 124.297 5.82251H121.454V25.035H115.687Z" fill="white"/>
<path d="M93.1817 25.035V1.17377H103.038C104.825 1.17377 106.367 1.5233 107.664 2.22236C108.969 2.91365 109.975 3.88068 110.681 5.12345C111.388 6.35846 111.742 7.79541 111.742 9.43432C111.742 11.081 111.381 12.5218 110.658 13.7568C109.944 14.9841 108.922 15.9356 107.594 16.6113C106.266 17.2871 104.689 17.625 102.864 17.625H96.7818V13.0811H101.792C102.662 13.0811 103.388 12.9296 103.97 12.6267C104.561 12.3238 105.007 11.9004 105.31 11.3567C105.613 10.8053 105.765 10.1644 105.765 9.43432C105.765 8.69642 105.613 8.0595 105.31 7.52356C105.007 6.97984 104.561 6.56041 103.97 6.26525C103.38 5.97009 102.654 5.82251 101.792 5.82251H98.9489V25.035H93.1817Z" fill="white"/>
<path d="M22.3334 25.035V1.17377H32.1902C33.9767 1.17377 35.5185 1.49611 36.8156 2.1408C38.1205 2.77772 39.1264 3.69426 39.8332 4.89043C40.5401 6.07883 40.8935 7.4886 40.8935 9.11974C40.8935 10.7742 40.5323 12.1801 39.8099 13.3374C39.0876 14.487 38.0623 15.3647 36.7341 15.9705C35.4059 16.5686 33.833 16.8676 32.0154 16.8676H25.7821V12.3238H30.9435C31.8135 12.3238 32.5397 12.2111 33.1223 11.9859C33.7126 11.7529 34.1592 11.4033 34.4621 10.9373C34.7651 10.4635 34.9165 9.85764 34.9165 9.11974C34.9165 8.38185 34.7651 7.77211 34.4621 7.29054C34.1592 6.80119 33.7126 6.43613 33.1223 6.19534C32.5319 5.94679 31.8057 5.82251 30.9435 5.82251H28.1007V25.035H22.3334ZM35.767 14.1297L41.709 25.035H35.4175L29.592 14.1297H35.767Z" fill="white"/>
<path d="M0 25.035V1.17377H5.76724V11.2635H6.08182L13.9695 1.17377H20.7621L12.3034 11.8228L20.9135 25.035H14.0161L8.07414 15.6559L5.76724 18.5687V25.035H0Z" fill="white"/>
<path fill-rule="evenodd" clip-rule="evenodd" d="M55.7309 25.3612C53.5871 25.3612 51.6569 24.8835 49.9403 23.9281C48.2238 22.9728 46.8606 21.5863 45.8508 19.7687C44.8489 17.9434 44.3479 15.722 44.3479 13.1044C44.3479 10.479 44.8489 8.25368 45.8508 6.42836C46.8606 4.60304 48.2238 3.21657 49.9403 2.26896C51.6569 1.32134 53.5871 0.847534 55.7309 0.847534H78.4211C80.5571 0.847534 82.4834 1.32134 84.2 2.26896C85.9243 3.21657 87.2914 4.60304 88.3011 6.42836C89.3109 8.25368 89.8157 10.479 89.8157 13.1044C89.8157 15.7297 89.3109 17.9551 88.3011 19.7804C87.2914 21.6057 85.9243 22.9922 84.2 23.9398C82.4834 24.8874 80.5571 25.3612 78.4211 25.3612H55.7309ZM52.7832 6.73128C53.6065 6.1798 54.5891 5.90406 55.7309 5.90406H78.4211C79.5706 5.90406 80.5532 6.1798 81.3688 6.73128C82.1921 7.28276 82.8213 8.09445 83.2562 9.16634C83.699 10.2382 83.9203 11.5509 83.9203 13.1044C83.9203 14.6578 83.699 15.9705 83.2562 17.0424C82.8213 18.1143 82.1921 18.926 81.3688 19.4775C80.5532 20.0289 79.5706 20.3047 78.4211 20.3047H55.7309C54.5891 20.3047 53.6065 20.0289 52.7832 19.4775C51.9599 18.926 51.3268 18.1143 50.8841 17.0424C50.4491 15.9705 50.2316 14.6578 50.2316 13.1044C50.2316 11.5509 50.4491 10.2382 50.8841 9.16634C51.3268 8.09445 51.9599 7.28276 52.7832 6.73128Z" fill="white"/>
</svg>
